<?xml version="1.0" encoding="utf-8"?>
<!-- Generator: Adobe Illustrator 24.0.0, SVG Export Plug-In . SVG Version: 6.00 Build 0)  -->
<svg version="1.1" id="Capa_1" xmlns="http://www.w3.org/2000/svg" xmlns:xlink="http://www.w3.org/1999/xlink" x="0px" y="0px"
	 viewBox="0 0 512 512" style="enable-background:new 0 0 512 512;" xml:space="preserve">
<style type="text/css">
	.st0{fill:#A7A7A7;}
</style>
<g>
	<g>
		<path class="st0" d="M501.4,273.4c-8.4-1.5-14.6-8.8-14.6-17.4s6.1-15.9,14.6-17.4c6.1-1.1,10.6-6.4,10.6-12.7v-59.2
			c0-6.4-4.7-11.9-11-12.7c-12.8-1.7-22.4-12.8-22.4-25.7c0-3.5-1.3-6.8-3.8-9.2c-2.4-2.4-5.6-3.8-9.1-3.8H46.2
			c-3.4,0-6.6,1.3-9.1,3.8c-2.5,2.5-3.8,5.7-3.8,9.3c0,12.9-9.6,23.9-22.4,25.6c-6.3,0.9-11,6.3-11,12.7v59.2
			c0,6.2,4.5,11.6,10.6,12.7c8.4,1.5,14.6,8.8,14.6,17.4c0,8.6-6.1,15.9-14.6,17.4C4.5,274.5,0,279.8,0,286.1v59.2
			c0,6.4,4.7,11.9,11,12.7c12.8,1.7,22.4,12.8,22.4,25.7c0,3.5,1.3,6.8,3.8,9.2c2.4,2.4,5.6,3.8,9.1,3.8h73.4c4.1,0,7.5-3.4,7.5-7.5
			c0-4.1-3.4-7.5-7.5-7.5H48.3c-0.9-18.8-14.8-34.8-33.3-38.2v-55.6c14.7-3.4,25.2-16.5,25.2-31.8S29.7,227.6,15,224.2v-55.6
			c18.5-3.4,32.4-19.3,33.3-38.2h415.3c0.9,18.8,14.8,34.8,33.3,38.2v55.6c-14.7,3.4-25.2,16.5-25.2,31.8s10.5,28.4,25.2,31.8v55.6
			c-18.5,3.4-32.4,19.3-33.3,38.2H166.3c-4.1,0-7.5,3.4-7.5,7.5c0,4.1,3.4,7.5,7.5,7.5h299.4c3.4,0,6.6-1.3,9.1-3.8
			c2.5-2.5,3.8-5.7,3.8-9.3c0-12.9,9.6-23.9,22.4-25.6c6.3-0.9,11-6.3,11-12.7v-59.2C512,279.8,507.5,274.5,501.4,273.4z"/>
	</g>
</g>
<g>
	<g>
		<path class="st0" d="M426.6,151.1h-95c-4.1,0-7.5,3.4-7.5,7.5s3.4,7.5,7.5,7.5h92.5v179.8H87.9V166.1H284c4.1,0,7.5-3.4,7.5-7.5
			s-3.4-7.5-7.5-7.5H85.4c-6.9,0-12.5,5.6-12.5,12.5v184.8c0,6.9,5.6,12.5,12.5,12.5h341.1c6.9,0,12.5-5.6,12.5-12.5V163.6
			C439.1,156.7,433.4,151.1,426.6,151.1z"/>
	</g>
</g>
<g>
	<g>
		<path class="st0" d="M146.4,217.1h-33.8c-3.7,0-6.8,3.2-6.8,7.1s3,7.1,6.8,7.1h9.9v51.5c0,3.9,3.1,6.9,7.1,6.9c4,0,7.1-3,7.1-6.9
			v-51.5h9.7c3.9,0,6.8-3.1,6.8-7.1C153.2,220.1,150.2,217.1,146.4,217.1z"/>
	</g>
</g>
<g>
	<g>
		<path class="st0" d="M169.1,217.1c-4.1,0-7.1,2.9-7.1,6.8v58.8c0,3.9,3.1,6.9,7.1,6.9c4.1,0,7.1-3,7.1-6.9v-58.8
			C176.2,220,173.2,217.1,169.1,217.1z"/>
	</g>
</g>
<g>
	<g>
		<path class="st0" d="M227,263.3c-3.8,0-6.6,2.5-7,6.1c-0.6,4.1-1.1,6.5-7.5,6.5c-6.3,0-8.4-2.2-8.4-8.8V240c0-5.6,1.3-8.8,8.2-8.8
			c6.4,0,7.5,3,7.7,6c0.1,3.8,3.1,6.6,7.1,6.6c3.5,0,7.1-2.1,7.1-7.8c0-9.4-7.6-18.8-22-18.8c-13.8,0-22.4,8.8-22.4,22.9v27.1
			c0,14.2,8.5,22.9,22.2,22.9c14.6,0,22.3-9.5,22.3-18.8C234.3,265.4,230.5,263.3,227,263.3z"/>
	</g>
</g>
<g>
	<g>
		<path class="st0" d="M290.6,278.6l-19.4-29.2l16.5-20.6c1.1-1.1,1.8-2.7,1.8-4.4c0-3.8-3.4-7.2-7.3-7.2c-2.2,0-4.2,1-5.5,2.7
			l-17.2,21.7v-17.6c0-3.9-3.1-6.8-7.1-6.8s-7.1,2.9-7.1,6.8v58.8c0,3.9,3.1,6.9,7.1,6.9c4.1,0,7.1-3,7.1-6.9V264l2.3-2.9l16.9,25.2
			c1.3,2.1,3.5,3.3,5.8,3.3c4,0,7.4-3.3,7.4-7.1C291.9,281,291.5,279.6,290.6,278.6z"/>
	</g>
</g>
<g>
	<g>
		<path class="st0" d="M337.4,275.4h-23.2v-15.2h8.6c3.8,0,6.8-3,6.8-6.9c0-4-3-7.1-6.8-7.1h-8.6v-15.1h23.2v0
			c3.8,0,6.8-3.1,6.8-7.1c0-4-2.9-7-6.8-7h-30.4c-4,0-7.1,3-7.1,6.9v58.7c0,3.9,3.1,6.9,7.1,6.9h30.4c3.9,0,6.8-3,6.8-7
			C344.2,278.6,341.2,275.4,337.4,275.4z"/>
	</g>
</g>
<g>
	<g>
		<path class="st0" d="M388.7,217.1h-33.8c-3.7,0-6.8,3.2-6.8,7.1s3,7.1,6.8,7.1h9.9v51.5c0,3.9,3.1,6.9,7.1,6.9c4,0,7.1-3,7.1-6.9
			v-51.5h9.7c3.9,0,6.8-3.1,6.8-7.1C395.5,220.1,392.5,217.1,388.7,217.1z"/>
	</g>
</g>
</svg>
