<?xml version="1.0" encoding="utf-8"?>
<!-- Generator: Adobe Illustrator 24.0.0, SVG Export Plug-In . SVG Version: 6.00 Build 0)  -->
<svg version="1.1" id="Layer_1" xmlns="http://www.w3.org/2000/svg" xmlns:xlink="http://www.w3.org/1999/xlink" x="0px" y="0px"
	 viewBox="0 0 120 120" style="enable-background:new 0 0 120 120;" xml:space="preserve">
<style type="text/css">
	.st0{fill:#E29C00;}
</style>
<g>
	<g>
		<path class="st0" d="M11.72,65.96v-4.14h9.89v4.14c1.27-0.37,2.27-1.15,3.02-2.35c0.75-1.19,1.12-2.66,1.12-4.42
			c0-2.68-0.86-4.92-2.57-6.71c-1.71-1.79-3.86-2.68-6.43-2.68c-2.53,0-4.68,0.89-6.43,2.68c-1.75,1.79-2.63,4.02-2.63,6.71
			c0,1.68,0.37,3.12,1.12,4.33C9.56,64.73,10.53,65.55,11.72,65.96z"/>
	</g>
	<g>
		<path class="st0" d="M53.97,45.95c-1.45,0-2.18,0.75-2.18,2.24c0,1.12,0.76,2.44,2.29,3.97c1.6-1.38,2.4-2.72,2.4-4.02
			C56.48,46.68,55.65,45.95,53.97,45.95z"/>
	</g>
	<g>
		<path class="st0" d="M49.95,66.46c0,1.27,0.36,2.32,1.09,3.16c0.73,0.84,1.65,1.26,2.77,1.26c0.82,0,1.56-0.28,2.24-0.84
			l-4.14-6.71C50.6,63.78,49.95,64.82,49.95,66.46z"/>
	</g>
	<g>
		<path class="st0" d="M59.98-0.11c-27.77,0-51.12,18.87-57.96,44.48c0.03-0.03,0.06-0.07,0.09-0.1c1.97-2.01,4.2-3.54,6.68-4.58
			c2.48-1.04,5.11-1.56,7.91-1.56c2.83,0,5.48,0.52,7.96,1.56c2.48,1.04,4.7,2.55,6.68,4.53c1.97,1.98,3.48,4.22,4.53,6.73
			c1.04,2.52,1.56,5.15,1.56,7.91c0,4.88-1.46,9.18-4.37,12.91c-2.92,3.73-6.73,6.05-11.44,6.99v3.63h-9.89v-3.63
			c-4.17-0.98-7.61-2.96-10.33-5.92c5.92,26.92,29.89,47.07,58.59,47.07c33.14,0,60-26.86,60-60S93.12-0.11,59.98-0.11z
			 M62.24,78.75l-1.17-2.01c-2.68,1.83-5.5,2.74-8.44,2.74c-3.65,0-6.73-1.27-9.25-3.82c-2.51-2.55-3.77-5.61-3.77-9.18
			c0-4.98,2.35-8.31,7.04-9.99c-0.97-1-1.73-2.18-2.29-3.52c-0.56-1.34-0.84-2.83-0.84-4.46c0-3.13,0.95-5.64,2.85-7.53
			c1.9-1.9,4.47-2.85,7.71-2.85c3.2,0,5.84,1.09,7.91,3.27c2.07,2.18,3.1,4.8,3.1,7.85c0,4.25-1.81,7.26-5.42,9.05l2.85,4.53h6.31
			v0.45c0,1.38-0.11,2.63-0.34,3.74c-0.22,1.12-0.61,2.24-1.17,3.35l4.92,8.38H62.24z M91.19,78.75V54.67
			c0-2.91-0.84-4.36-2.51-4.36c-0.97,0-1.6,0.35-1.9,1.03c-0.3,0.69-0.45,1.8-0.45,3.32v4.19h3.07v10.56h-3.07v9.33H74.14V57.52
			c0-2.09,0.03-3.62,0.08-4.61c0.06-0.99,0.27-2.19,0.64-3.6c0.93-3.58,2.59-6.33,4.97-8.27c2.38-1.94,5.27-2.91,8.66-2.91
			c4.95,0,8.77,2.05,11.46,6.15c1.15,1.79,1.96,3.88,2.4,6.26c0.33,1.83,0.5,4.15,0.5,6.99v21.24H91.19z"/>
	</g>
</g>
</svg>
